<?xml version="1.0" encoding="UTF-8"?>
<svg version="1.1" xmlns="http://www.w3.org/2000/svg" width="128" height="128">
<path d="M0 0 C0.90471542 -0.00671722 1.80943085 -0.01343445 2.74156189 -0.02035522 C5.72774778 -0.03932819 8.71370879 -0.04325918 11.69995117 -0.04541016 C13.78114412 -0.05183893 15.86233617 -0.05856735 17.94352722 -0.06558228 C22.30547175 -0.07755354 26.66733708 -0.08126328 31.02929688 -0.08007812 C36.60780665 -0.07987503 42.18580645 -0.10716837 47.76419544 -0.14162254 C52.06314915 -0.16390444 56.36198042 -0.16791525 60.66098595 -0.16685867 C62.71700484 -0.16921302 64.77302719 -0.17802712 66.82898903 -0.19352341 C69.71057033 -0.21320773 72.59105578 -0.20733545 75.47265625 -0.1953125 C76.73618423 -0.21217102 76.73618423 -0.21217102 78.02523804 -0.22937012 C84.82620696 -0.15757821 90.03077487 1.74954919 95.17260742 6.25537109 C95.71143555 6.90634766 96.25026367 7.55732422 96.80541992 8.22802734 C97.3597168 8.87642578 97.91401367 9.52482422 98.48510742 10.19287109 C102.11038923 15.45442874 102.22755352 20.17621118 102.22094727 26.36010742 C102.22766449 27.26482285 102.23438171 28.16953827 102.24130249 29.10166931 C102.26027545 32.0878552 102.26420645 35.07381621 102.26635742 38.06005859 C102.27278619 40.14125154 102.27951461 42.22244359 102.28652954 44.30363464 C102.29850081 48.66557917 102.30221055 53.02744451 102.30102539 57.3894043 C102.3008223 62.96791407 102.32811564 68.54591387 102.36256981 74.12430286 C102.38485171 78.42325657 102.38886252 82.72208784 102.38780594 87.02109337 C102.39016028 89.07711226 102.39897438 91.13313461 102.41447067 93.18909645 C102.43415499 96.07067775 102.42828271 98.9511632 102.41625977 101.83276367 C102.42749878 102.67511566 102.43873779 103.51746765 102.45031738 104.38534546 C102.37852548 111.18631439 100.47139808 116.39088229 95.96557617 121.53271484 C95.31459961 122.07154297 94.66362305 122.61037109 93.99291992 123.16552734 C93.34452148 123.71982422 92.69612305 124.27412109 92.02807617 124.84521484 C86.76651853 128.47049665 82.04473609 128.58766094 75.86083984 128.58105469 C74.95612442 128.58777191 74.051409 128.59448914 73.11927795 128.60140991 C70.13309207 128.62038287 67.14713106 128.62431387 64.16088867 128.62646484 C62.07969572 128.63289361 59.99850368 128.63962203 57.91731262 128.64663696 C53.5553681 128.65860823 49.19350276 128.66231797 44.83154297 128.66113281 C39.2530332 128.66092972 33.6750334 128.68822306 28.0966444 128.72267723 C23.7976907 128.74495913 19.49885943 128.74896994 15.1998539 128.74791336 C13.14383501 128.7502677 11.08781266 128.7590818 9.03185081 128.77457809 C6.15026951 128.79426241 3.26978406 128.78839013 0.38818359 128.77636719 C-0.4541684 128.7876062 -1.29652039 128.79884521 -2.16439819 128.8104248 C-8.96536712 128.7386329 -14.16993503 126.8315055 -19.31176758 122.32568359 C-19.8505957 121.67470703 -20.38942383 121.02373047 -20.94458008 120.35302734 C-21.49887695 119.70462891 -22.05317383 119.05623047 -22.62426758 118.38818359 C-26.24954938 113.12662595 -26.36671368 108.40484351 -26.36010742 102.22094727 C-26.36682465 101.31623184 -26.37354187 100.41151642 -26.38046265 99.47938538 C-26.39943561 96.49319949 -26.4033666 93.50723848 -26.40551758 90.52099609 C-26.41194635 88.43980314 -26.41867477 86.3586111 -26.4256897 84.27742004 C-26.43766097 79.91547552 -26.44137071 75.55361018 -26.44018555 71.19165039 C-26.43998245 65.61314062 -26.46727579 60.03514082 -26.50172997 54.45675182 C-26.52401186 50.15779812 -26.52802267 45.85896685 -26.52696609 41.55996132 C-26.52932044 39.50394243 -26.53813454 37.44792008 -26.55363083 35.39195824 C-26.57331515 32.51037693 -26.56744287 29.62989148 -26.55541992 26.74829102 C-26.56665894 25.90593903 -26.57789795 25.06358704 -26.58947754 24.19570923 C-26.51768563 17.3947403 -24.61055823 12.19017239 -20.10473633 7.04833984 C-19.45375977 6.50951172 -18.8027832 5.97068359 -18.13208008 5.41552734 C-17.48368164 4.86123047 -16.8352832 4.30693359 -16.16723633 3.73583984 C-10.90567868 0.11055804 -6.18389625 -0.00660626 0 0 Z " fill="#CA5F73" transform="translate(26.069580078125,-0.29052734375)"/>
<path d="M0 0 C1.40726349 -0.01925285 1.40726349 -0.01925285 2.84295654 -0.03889465 C4.3617038 -0.04997505 4.3617038 -0.04997505 5.91113281 -0.0612793 C6.95569641 -0.06935104 8.00026001 -0.07742279 9.07647705 -0.08573914 C11.28892357 -0.09957441 13.50139139 -0.11029905 15.71386719 -0.11816406 C19.08732883 -0.13536077 22.45980633 -0.17925102 25.83300781 -0.22338867 C27.98404228 -0.23351729 30.13508508 -0.24203286 32.28613281 -0.2487793 C33.29053406 -0.26628738 34.2949353 -0.28379547 35.32977295 -0.30183411 C41.57552748 -0.28261589 45.26739012 0.49831623 50.36425781 4.17700195 C54.14579768 8.25708445 55.47549629 11.30179818 55.54125977 16.81274414 C55.56051262 18.22000763 55.56051262 18.22000763 55.58015442 19.65570068 C55.58754135 20.66819885 55.59492828 21.68069702 55.60253906 22.72387695 C55.61061081 23.76844055 55.61868256 24.81300415 55.6269989 25.88922119 C55.64083417 28.10166771 55.65155882 30.31413553 55.65942383 32.52661133 C55.67662054 35.90007297 55.72051079 39.27255047 55.76464844 42.64575195 C55.77477706 44.79678642 55.78329263 46.94782922 55.79003906 49.09887695 C55.80754715 50.1032782 55.82505524 51.10767944 55.84309387 52.14251709 C55.82387566 58.38827162 55.04294353 62.08013427 51.36425781 67.17700195 C47.23432756 71.00474219 44.17868554 72.29329487 38.60498047 72.33813477 C37.64032867 72.34774231 36.67567688 72.35734985 35.68179321 72.36724854 C34.12082413 72.37362335 34.12082413 72.37362335 32.52832031 72.38012695 C31.45681732 72.38582703 30.38531433 72.3915271 29.28134155 72.3973999 C27.01341744 72.40684933 24.74547959 72.41338365 22.47753906 72.41723633 C19.00984744 72.42694431 15.54274787 72.45796979 12.07519531 72.48950195 C9.87207383 72.49603186 7.66894811 72.50128238 5.46582031 72.50512695 C4.42922272 72.51747375 3.39262512 72.52982056 2.32461548 72.5425415 C-3.80198165 72.52360499 -7.67195988 72.11833136 -12.18261719 67.6418457 C-15.34784779 63.62364711 -16.75606152 61.61557545 -16.796875 56.54711914 C-16.81128632 55.10486969 -16.81128632 55.10486969 -16.82598877 53.63348389 C-16.83023865 52.5908136 -16.83448853 51.54814331 -16.83886719 50.47387695 C-16.84456726 49.40333069 -16.85026733 48.33278442 -16.85614014 47.22979736 C-16.86559982 44.96009309 -16.87212795 42.69037502 -16.87597656 40.4206543 C-16.88566371 36.95507649 -16.91667094 33.49009626 -16.94824219 30.0246582 C-16.95477399 27.82023464 -16.96002377 25.61580684 -16.96386719 23.41137695 C-16.97621399 22.37680359 -16.98856079 21.34223022 -17.00128174 20.27630615 C-16.98209393 14.04825358 -16.52236367 9.34176144 -12.13574219 4.5324707 C-7.99413213 1.30762329 -5.1946406 0.06198893 0 0 Z " fill="#E15859" transform="translate(44.6357421875,27.822998046875)"/>
<path d="M0 0 C1.40726349 -0.01925285 1.40726349 -0.01925285 2.84295654 -0.03889465 C4.3617038 -0.04997505 4.3617038 -0.04997505 5.91113281 -0.0612793 C6.95569641 -0.06935104 8.00026001 -0.07742279 9.07647705 -0.08573914 C11.28892357 -0.09957441 13.50139139 -0.11029905 15.71386719 -0.11816406 C19.08732883 -0.13536077 22.45980633 -0.17925102 25.83300781 -0.22338867 C27.98404228 -0.23351729 30.13508508 -0.24203286 32.28613281 -0.2487793 C33.29053406 -0.26628738 34.2949353 -0.28379547 35.32977295 -0.30183411 C41.57552748 -0.28261589 45.26739012 0.49831623 50.36425781 4.17700195 C54.14579768 8.25708445 55.47549629 11.30179818 55.54125977 16.81274414 C55.56051262 18.22000763 55.56051262 18.22000763 55.58015442 19.65570068 C55.58754135 20.66819885 55.59492828 21.68069702 55.60253906 22.72387695 C55.61061081 23.76844055 55.61868256 24.81300415 55.6269989 25.88922119 C55.64083417 28.10166771 55.65155882 30.31413553 55.65942383 32.52661133 C55.67662054 35.90007297 55.72051079 39.27255047 55.76464844 42.64575195 C55.77477706 44.79678642 55.78329263 46.94782922 55.79003906 49.09887695 C55.80754715 50.1032782 55.82505524 51.10767944 55.84309387 52.14251709 C55.82387566 58.38827162 55.04294353 62.08013427 51.36425781 67.17700195 C47.23432756 71.00474219 44.17868554 72.29329487 38.60498047 72.33813477 C37.64032867 72.34774231 36.67567688 72.35734985 35.68179321 72.36724854 C34.12082413 72.37362335 34.12082413 72.37362335 32.52832031 72.38012695 C31.45681732 72.38582703 30.38531433 72.3915271 29.28134155 72.3973999 C27.01341744 72.40684933 24.74547959 72.41338365 22.47753906 72.41723633 C19.00984744 72.42694431 15.54274787 72.45796979 12.07519531 72.48950195 C9.87207383 72.49603186 7.66894811 72.50128238 5.46582031 72.50512695 C4.42922272 72.51747375 3.39262512 72.52982056 2.32461548 72.5425415 C-3.80198165 72.52360499 -7.67195988 72.11833136 -12.18261719 67.6418457 C-15.34784779 63.62364711 -16.75606152 61.61557545 -16.796875 56.54711914 C-16.81128632 55.10486969 -16.81128632 55.10486969 -16.82598877 53.63348389 C-16.83023865 52.5908136 -16.83448853 51.54814331 -16.83886719 50.47387695 C-16.84456726 49.40333069 -16.85026733 48.33278442 -16.85614014 47.22979736 C-16.86559982 44.96009309 -16.87212795 42.69037502 -16.87597656 40.4206543 C-16.88566371 36.95507649 -16.91667094 33.49009626 -16.94824219 30.0246582 C-16.95477399 27.82023464 -16.96002377 25.61580684 -16.96386719 23.41137695 C-16.97621399 22.37680359 -16.98856079 21.34223022 -17.00128174 20.27630615 C-16.98209393 14.04825358 -16.52236367 9.34176144 -12.13574219 4.5324707 C-7.99413213 1.30762329 -5.1946406 0.06198893 0 0 Z M-6.74267578 10.07006836 C-9.47724637 14.55809329 -9.35401131 18.38527495 -9.29980469 23.55200195 C-9.30458832 24.55408691 -9.30937195 25.55617188 -9.31430054 26.58862305 C-9.31769697 28.70338515 -9.3085126 30.81819993 -9.28759766 32.93286133 C-9.26082932 36.16647616 -9.28735512 39.39661985 -9.31933594 42.63012695 C-9.31603179 44.68742627 -9.30962547 46.74472343 -9.29980469 48.80200195 C-9.30992584 49.7667041 -9.320047 50.73140625 -9.33047485 51.7253418 C-9.25514528 56.04815236 -9.02132721 58.54782198 -6.72900391 62.28833008 C-2.29372044 64.99640844 1.41475852 64.85953811 6.52050781 64.77075195 C7.99034119 64.77081238 7.99034119 64.77081238 9.48986816 64.77087402 C11.5576012 64.76552253 13.62533397 64.74795575 15.69287109 64.71899414 C18.85349856 64.67714442 22.01199375 64.67792698 25.17285156 64.68481445 C27.18458508 64.67432124 29.19630765 64.66138243 31.20800781 64.64575195 C32.15083618 64.64555054 33.09366455 64.64534912 34.06506348 64.6451416 C38.90474023 64.5580693 42.5248281 64.4796117 46.36425781 61.17700195 C47.28807771 58.40554225 47.50970031 56.65294952 47.55712891 53.78491211 C47.57319183 52.90034332 47.58925476 52.01577454 47.60580444 51.10440063 C47.65035632 47.06936522 47.69130061 43.03449137 47.71435547 38.99926758 C47.73093001 36.87122676 47.75823957 34.74324195 47.79638672 32.61547852 C47.85113976 29.54454729 47.87302509 26.47491795 47.88769531 23.40356445 C47.91036469 22.45446198 47.93303406 21.5053595 47.95639038 20.52749634 C47.94265826 16.23506858 47.74523139 13.80330316 45.47998047 10.0793457 C40.98663174 7.33587499 37.16470657 7.45864133 31.98925781 7.51293945 C30.98717285 7.50815582 29.98508789 7.50337219 28.95263672 7.4984436 C26.83787462 7.49504717 24.72305984 7.50423154 22.60839844 7.52514648 C19.3747836 7.55191482 16.14463992 7.52538903 12.91113281 7.4934082 C10.8538335 7.49671235 8.79653634 7.50311867 6.73925781 7.51293945 C5.77455566 7.5028183 4.80985352 7.49269714 3.81591797 7.48226929 C-0.49645651 7.557417 -3.00639506 7.79353836 -6.74267578 10.07006836 Z " fill="#FEFDFD" transform="translate(44.6357421875,27.822998046875)"/>
<path d="M0 0 C5.67476113 1.96434039 9.31400331 5.62800662 12 11 C12.59057744 16.67862925 12.29370905 21.16922672 9 26 C4.57092517 30.57795129 1.3260831 31.81241265 -4.875 32.3125 C-9.23455451 32.24767391 -11.6384369 30.82676897 -15 28 C-19.3022759 23.23261319 -20.36282503 19.56252705 -20.28125 13.28125 C-19.69180611 8.50020514 -16.85179203 5.75038822 -13.375 2.6875 C-8.92314854 -0.47565762 -5.3540278 -0.48837416 0 0 Z " fill="#FEF9F9" transform="translate(68,48)"/>
<path d="M0 0 C4.0743356 0.84881992 5.54405875 2.30225596 8 5.625 C8.625 8.625 8.625 8.625 8 11.625 C5.54405875 14.94774404 4.0743356 16.40118008 0 17.25 C-4.0743356 16.40118008 -5.54405875 14.94774404 -8 11.625 C-8.625 8.625 -8.625 8.625 -8 5.625 C-5.54405875 2.30225596 -4.0743356 0.84881992 0 0 Z " fill="#E55956" transform="translate(64,55.375)"/>
<path d="M0 0 C2.4375 0.8125 2.4375 0.8125 4.4375 2.8125 C4.10778521 6.10964793 3.8148161 7.4351839 1.4375 9.8125 C-1.6875 9.4375 -1.6875 9.4375 -4.5625 8.8125 C-5.89091008 3.37809513 -5.89091008 3.37809513 -4.4375 0.875 C-2.5625 -0.1875 -2.5625 -0.1875 0 0 Z " fill="#FCF6F9" transform="translate(82.5625,41.1875)"/>
</svg>
