<?xml version="1.0" encoding="UTF-8"?>
<svg version="1.1" xmlns="http://www.w3.org/2000/svg" width="128" height="128">
<path d="M0 0 C42.24 0 84.48 0 128 0 C128 42.24 128 84.48 128 128 C85.76 128 43.52 128 0 128 C0 85.76 0 43.52 0 0 Z " fill="#1DA1F2" transform="translate(0,0)"/>
<path d="M0 0 C1.67324095 0.98896032 3.34057751 1.98802432 5 3 C7.08573958 3.18969614 7.08573958 3.18969614 9.0625 2.75 C9.74441406 2.63269531 10.42632812 2.51539063 11.12890625 2.39453125 C13.10216161 1.97845862 15.06328287 1.56487583 17 1 C15.38731308 3.71224618 13.75098126 6.37352812 12 9 C14.97 8.505 14.97 8.505 18 8 C16.19587357 11.26460973 15.16605307 12.88929795 12 15 C11.37503845 17.93752661 11.37503845 17.93752661 11.125 21.375 C9.46581772 34.47451175 3.68295644 47.01395167 -6.875 55.375 C-19.64103283 64.06194542 -33.13278709 66.04121693 -48.29296875 63.43359375 C-52.53230572 62.20861136 -56.41576009 60.6284426 -60 58 C-60 57.67 -60 57.34 -60 57 C-59.33355469 56.98582031 -58.66710937 56.97164062 -57.98046875 56.95703125 C-50.40814927 56.56517696 -44.68695344 54.50515354 -38 51 C-39.216875 50.62875 -40.43375 50.2575 -41.6875 49.875 C-46.28483181 48.16322752 -48.24012576 46.01436253 -51 42 C-51.495 40.515 -51.495 40.515 -52 39 C-50.02 38.505 -50.02 38.505 -48 38 C-48.9075 37.505 -49.815 37.01 -50.75 36.5 C-54.65685281 33.91703333 -56.47921036 30.35661504 -58 26 C-58 25.01 -58 24.02 -58 23 C-56.35 23 -54.7 23 -53 23 C-53.66 22.0925 -54.32 21.185 -55 20.25 C-57.98500994 15.15235978 -57.33808145 9.71921117 -57 4 C-53.12427194 4 -52.32507922 5.17998738 -49.4375 7.6875 C-40.81194498 14.74023312 -33.05623185 17.72720355 -22 19 C-22.0825 17.80375 -22.165 16.6075 -22.25 15.375 C-22.22912806 9.45780419 -19.2659692 6.45586458 -15.5 2.125 C-11.12930051 -1.34026046 -5.25543166 -0.84879112 0 0 Z " fill="#FBFDFE" transform="translate(85,32)"/>
</svg>
